<?xml version="1.0" encoding="UTF-8"?>
<svg id="Layer_2" data-name="Layer 2" xmlns="http://www.w3.org/2000/svg" viewBox="0 0 273.74 288.42">
  <defs>
    <style>
      .cls-1 {
        fill: #79977c;
      }

      .cls-2 {
        fill: #6e8970;
      }

      .cls-3 {
        fill: #231f20;
      }

      .cls-4 {
        fill: #985b6e;
      }

      .cls-5 {
        fill: #8b5e3c;
      }

      .cls-6 {
        stroke-width: .69px;
      }

      .cls-6, .cls-7 {
        stroke: #8b5e3c;
      }

      .cls-6, .cls-7, .cls-8 {
        fill: none;
        stroke-miterlimit: 10;
      }

      .cls-7 {
        stroke-width: .85px;
      }

      .cls-9 {
        fill: #fff;
      }

      .cls-8 {
        stroke: #79977c;
        stroke-width: 6.27px;
      }

      .cls-10 {
        fill: #fff6f0;
      }

      .cls-11 {
        fill: #d695c2;
      }

      .cls-12 {
        fill: #c3d6b2;
      }
    </style>
  </defs>
  <g id="Kraken">
    <path class="cls-4" d="M270.08,52.11c-7.21-5.81-11.97-12.54-14.94-21.13-2.06-20.9-7.18-26.39-10.94-28.62-1.24-.79-2.56-1.38-3.92-1.77-3.55-1.02-6.81-.5-9.07.05-5,.72-11.17,2.6-18.34,5.6-8.34,1.56-17.43,1.04-27.77-1.59-3.65-.93-7.18.12-9.44,2.8-3.2,3.78-3.21,10.22-.04,19.17-9.68,6.44-26.95,18.87-32.84,29.1-3.83,6.64-4.22,13.11-1.22,19.03-.65.62-1.28,1.24-1.88,1.88-5.14-13.64-11.99-21.75-20.45-24.18-.44-.13-.89-.24-1.34-.33-6.53-1.38-13.05.49-19.39,5.57-5.39,4.32-10.72,10.98-16.3,20.38-2.26,3.8-4.42,7.85-6.45,12.06-5.55,5.77-8.66,13.47-8.67,21.49-6.35,18.96-9.51,37.28-12.06,52.07-1.8,10.42-4.47,25.94-7.32,29.52-.05-.01-.1-.03-.15-.04-.59-.17-1.64-.57-3.25-1.5-5.36-3.09-13.6-12.58-8.5-41.37,2.14-12.09,5.99-23.53,8.24-29.63.48-.84.85-1.75,1.27-2.75.87-2.09,2.06-4.96,4.51-7.83,2.36-2.77,5.71-5.33,8.4-7.39,4.37-3.34,7.52-5.76,7.63-10.04.02-.59-.04-1.17-.16-1.74,2.46-1.7,4.97-3.49,7.56-5.41,2.77-2.06,4.08-5.53,3.44-8.92-.53-2.79-2.37-5.14-4.86-6.39.13-3.31-1.57-6.46-4.47-8.14-1.41-.82-2.97-1.22-4.53-1.22-1.89,0-3.78.6-5.37,1.77-3.82,2.83-7.69,5.57-11.61,8.22l-10.57-17.65c-1.23-2.05-3.22-3.53-5.53-4.11-.72-.18-1.46-.27-2.19-.27-1.62,0-3.22.44-4.63,1.28l-.72.43c-1.91,1.14-3.24,2.88-3.9,4.83-1.76,2.66-3.38,6.65-2.84,11.9l-.1.06c-2.03,1.21-3.41,3.1-4.02,5.21-.38.39-.73.81-1.04,1.26-2.77,4.04-5.39,10.5-3.61,19.43-.5.24-1,.47-1.5.7C1.85,95.45-.2,98.89.02,102.58s2.66,6.86,6.17,8.02c3,.99,6.27,1.49,9.73,1.49s6.84-.48,10.6-1.39c-2.95,7.52-8.72,23.72-11.14,41.13-4.92,35.3,7.61,50.53,18.99,57.09,2.71,1.56,5.23,2.67,7.71,3.38,5.03,1.45,9.72,1.18,13.94-.8,11.93-5.59,14.73-21.88,18.62-44.42,1.51-8.74,3.28-19.04,5.86-29.85,2.74,1.89,5.8,3.34,9.09,4.28,7.73,2.22,15.91,1.38,23.03-2.37.55-.29,1.13-.59,1.73-.91-1.72,2.59-3.41,5.28-5.09,8.07l-1.87,1.05c-4.47,2.51-7.4,7.05-7.83,12.16-.43,5.11,1.7,10.08,5.69,13.29l14.87,11.97c1.62,1.3,3.44,2.25,5.41,2.82,5.42,1.56,11.06-.05,14.91-3.71-.44,2.27-.36,4.65.27,6.95,1.35,4.95,5.05,8.88,9.91,10.53l18.07,6.14c.24.08.48.16.72.23,4.78,1.37,9.95.34,13.85-2.77,3.89-3.1,6.05-7.92,5.78-12.9v-.13c1.45-3.07,2.83-6.13,4.13-9.2,2.16,9.27,8.47,17.06,17.14,21.08-9.35,9.26-18.88,17.22-26.9,23.91-17.56,14.66-30.25,25.25-29.12,38.37.6,6.92,5,12.79,13.08,17.45,2.61,1.51,5.37,2.68,8.2,3.5h0c34.41,9.88,72.1-34.85,81.65-47.11.6-.31,1.18-.63,1.73-.97,4.75-2.9,8.14-6.92,9.8-11.62,2.07-5.86,1.46-13.21-1.65-20.18-1.65-3.69-4.45-8.38-8.43-9.79-.13-.04-.31-.1-.44-.14-2.12-.61-4.39-.27-6.22.94-3.48,2.29-3.98,6.16-4.68,11.52-.43,3.36-.98,7.54-2.19,10.98-1.25,3.56-3.14,6.02-4.52,7.82-.65.85-1.24,1.62-1.73,2.45-17.44,21.02-41.67,41.62-57.87,36.97-1.28-.37-2.54-.9-3.72-1.59-1.74-1-2.62-1.75-3.03-2.17,1.67-4.26,13.76-14.35,21.88-21.13,12.52-10.45,28.03-23.4,42.05-40.04,8.35-4.52,14.13-12.51,15.78-21.85.92-1.52,1.81-3.04,2.64-4.54,4.18-7.47,16.9-30.22,4.57-43.9-2.65-2.94-6.18-5.06-10.47-6.3-3.75-1.08-8.07-1.49-13.03-1.24,2.82-1.65,5.56-4.34,7.96-8.51,5.95-10.33,8.48-32.02,9.44-43.66,8.27-1.74,16.59-5.04,18.32-11.3.97-3.51-.28-7.08-3.34-9.55ZM97.23,110.31c-.92-2.57-.99-5.36-.16-8.01,1-3.24,3.21-5.89,6.21-7.47.46-.24.94-.46,1.48-.66,2.88-1.08,4.68-3.95,4.4-7-.26-2.82-2.23-5.16-4.9-5.93-.11-.03-.23-.06-.35-.09,5.29-7.35,8.83-9.42,9.91-9.55,1.93.71,7.93,8.78,12.01,29.52-3.96,4.62-10.57,8.68-28.6,9.2ZM245.2,145.45c.67.19,1.04.4,1.17.49.31.74.39,3.27-1.2,8.05-.43-.23-.89-.42-1.35-.55-1.54-.44-3.22-.34-4.75.37-2.79,1.29-4.37,4.29-3.86,7.31.1.57.15,1.1.17,1.61.26,6.38-4.27,11.87-10.37,12.99-7.3-13.49-8.18-20.98-7.14-26.39,11.96-3.77,22.46-5.29,27.34-3.89Z"/>
    <g>
      <path class="cls-1" d="M239.75,113.21c4.52-7.85,7.73-26.54,8.93-46.05,12.63-1.77,21.46-6.24,17.12-9.74-9.96-8.03-14.71-16.94-17.37-25-1.15-12.41-3.66-21.86-7.79-24.24-2.53-1.64-5.1-1.62-8.13-.83-4.81.64-10.92,2.6-17.65,5.45-7.71,1.55-17.75,1.94-31.44-1.54-5.02-1.28-4.13,7.31.61,18.03-16.34,10.33-30.85,22.04-35.34,29.84-3.91,6.78-2.46,12.1,2.04,16.76-5.01,3.84-9.11,8.24-11.74,12.79-10.68,18.52,9.71,26.94,32.03,39.81,22.32,12.87,38.12,25.31,48.8,6.78,2.47-4.29,4.3-9.55,5.37-15.25,5.71,1.56,10.58.11,14.56-6.8Z"/>
      <g>
        <path class="cls-1" d="M153.25,111.04c-16.58,8.21-47.6,23.51-47.6,23.51l-12.13-17.37c32.72-.07,38.97-9.68,47.42-29.52,0,0,28.89,15.17,12.31,23.38Z"/>
        <path class="cls-12" d="M91.93,115.15c-5.02-9.53-1.36-21.33,8.17-26.36.74-.39,1.5-.72,2.27-1.01-5.12-.91-10.57-.2-15.53,2.41-11.84,6.24-16.39,20.9-10.15,32.74,6.24,11.84,20.9,16.39,32.74,10.15,4.69-2.47,12.22-6.37,18.2-9.33-.5.33,6.26-3.23,5.72-2.95-9.53,5.02-36.39,3.87-41.42-5.67Z"/>
      </g>
      <g>
        <path class="cls-1" d="M196.3,127.62c1.2,18.46,3.51,52.97,3.51,52.97l21.11,1.8c-16.33-28.35-11.15-38.58,1.78-55.83,0,0-27.6-17.4-26.4,1.06Z"/>
        <path class="cls-12" d="M223.48,182.75c10.77-.43,19.15-9.51,18.71-20.28-.03-.84-.13-1.66-.26-2.47,3.36,3.97,5.47,9.05,5.69,14.65.54,13.38-9.87,24.65-23.25,25.19-13.38.54-24.65-9.87-25.19-23.25-.21-5.3-.61-13.77-1.05-20.42-.03.6-.34-7.04-.32-6.43.43,10.77,14.89,33.43,25.66,33Z"/>
      </g>
      <g>
        <path class="cls-1" d="M132.43,179.18l-23.36-18.8c11.83-22.11,25.92-40.91,43.71-54.3l23.36,18.8c-10.97,20.12-25.83,38.06-43.71,54.3Z"/>
        <path class="cls-12" d="M133,140.79l-22.31,12.49c-5.31,2.97-5.93,10.38-1.19,14.19l14.87,11.97c4.74,3.82,11.84,1.63,13.61-4.2l7.43-24.46c2.25-7.41-5.67-13.78-12.42-10Z"/>
      </g>
      <g>
        <path class="cls-1" d="M178.35,198.03l-28.39-9.65c3.53-24.83,10.31-47.32,22.43-66l28.39,9.65c-3.4,22.66-11.21,44.61-22.43,66Z"/>
        <path class="cls-12" d="M165.72,161.76l-16.67,19.38c-3.97,4.62-2.01,11.78,3.75,13.74l18.07,6.14c5.76,1.96,11.68-2.53,11.35-8.61l-1.41-25.53c-.43-7.73-10.05-11-15.1-5.13Z"/>
      </g>
      <g>
        <g>
          <circle class="cls-1" cx="242.88" cy="177.88" r="4.18"/>
          <circle class="cls-12" cx="242.88" cy="177.88" r="2.71"/>
        </g>
        <g>
          <circle class="cls-1" cx="230.06" cy="187.82" r="4.18"/>
          <circle class="cls-12" cx="230.06" cy="187.82" r="2.71"/>
        </g>
        <g>
          <circle class="cls-1" cx="214.87" cy="186.6" r="4.18"/>
          <circle class="cls-12" cx="214.87" cy="186.6" r="2.71"/>
        </g>
        <g>
          <circle class="cls-1" cx="204.76" cy="177.43" r="4.18"/>
          <circle class="cls-12" cx="204.76" cy="177.43" r="2.71"/>
        </g>
      </g>
      <g>
        <g>
          <circle class="cls-1" cx="86.13" cy="96.19" r="4.18"/>
          <circle class="cls-12" cx="86.13" cy="96.19" r="2.71"/>
        </g>
        <g>
          <circle class="cls-1" cx="84.18" cy="112.28" r="4.18"/>
          <circle class="cls-12" cx="84.18" cy="112.28" r="2.71"/>
        </g>
        <g>
          <circle class="cls-1" cx="93.02" cy="124.7" r="4.18"/>
          <circle class="cls-12" cx="93.02" cy="124.7" r="2.71"/>
        </g>
        <g>
          <circle class="cls-1" cx="106.09" cy="128.66" r="4.18"/>
          <circle class="cls-12" cx="106.09" cy="128.66" r="2.71"/>
        </g>
      </g>
      <g>
        <path class="cls-8" d="M201.36,144.84s81.15-34.96,46.58,26.85-108.3,84.35-75.61,103.2c32.69,18.85,78.52-43.04,78.52-43.04"/>
        <path class="cls-1" d="M260.88,209.9c-1.49-3.33-3.36-5.75-4.48-6.14-2.56-.9-1.69,10.24-4.83,19.13-3.13,8.88-9.08,12.15-6.52,13.05,1.51.53,6.15-.27,10.35-2.83,0-.01,0-.03,0-.04,2.01-7.66,5.95-15.44,5.47-23.16Z"/>
        <path class="cls-12" d="M262.33,225.03c1.77-5,.47-10.83-1.45-15.13.49,7.73-3.46,15.51-5.47,23.16,0,.01,0,.03,0,.04,2.92-1.78,5.63-4.42,6.92-8.07Z"/>
      </g>
      <g>
        <path class="cls-8" d="M137.32,109.99s-10.41-87.75-46.58-26.85c-36.17,60.9-18.73,135.99-51.42,117.14-32.69-18.85-2.09-89.52-2.09-89.52"/>
        <path class="cls-1" d="M51.2,91.08c3.63-.38,6.66.03,7.56.8,2.06,1.76-8.01,6.6-14.13,13.76-6.12,7.16-5.96,13.94-8.02,12.18-1.22-1.04-2.85-5.46-2.74-10.38.01,0,.02-.02.03-.03,5.62-5.58,10.38-12.89,17.31-16.34Z"/>
        <path class="cls-12" d="M37.38,97.42c3.45-4.04,9.14-5.84,13.82-6.33-6.93,3.45-11.69,10.76-17.31,16.34-.01,0-.02.02-.03.03.08-3.42,1.01-7.09,3.52-10.03Z"/>
      </g>
    </g>
    <g>
      <ellipse class="cls-3" cx="206.08" cy="120.43" rx="11.11" ry="4.41" transform="translate(-31.81 139.87) rotate(-34.97)"/>
      <circle class="cls-9" cx="199.79" cy="125" r="2.09"/>
      <circle class="cls-9" cx="212.16" cy="114.87" r=".53"/>
    </g>
    <g>
      <ellipse class="cls-3" cx="160.46" cy="95.01" rx="11.11" ry="4.41" transform="translate(49.59 244.95) rotate(-84.15)"/>
      <circle class="cls-9" cx="159.52" cy="102.74" r="2.09"/>
      <circle class="cls-9" cx="162.35" cy="87" r=".53"/>
    </g>
    <g>
      <path class="cls-11" d="M154.16,97.45c1.76,1.05,2.37,3.25,1.37,5.05-1.77-1.05-2.36-3.25-1.37-5.05h0Z"/>
      <path class="cls-11" d="M150.78,96.35c1.76,1.05,2.37,3.25,1.37,5.05-1.77-1.05-2.36-3.25-1.37-5.05h0Z"/>
      <path class="cls-11" d="M147.39,95.24c1.76,1.05,2.37,3.25,1.37,5.05-1.77-1.05-2.36-3.25-1.37-5.05h0Z"/>
    </g>
    <g>
      <path class="cls-11" d="M214.54,127.31c1.8,1.24,2.3,3.62,1.1,5.46-1.81-1.23-2.28-3.62-1.1-5.46h0Z"/>
      <path class="cls-11" d="M211.09,126.32c1.8,1.24,2.3,3.62,1.1,5.46-1.81-1.23-2.29-3.62-1.1-5.46h0Z"/>
      <path class="cls-11" d="M207.63,125.33c1.8,1.24,2.3,3.62,1.1,5.46-1.81-1.23-2.28-3.62-1.1-5.46h0Z"/>
    </g>
    <path class="cls-2" d="M246.08,28.26c-.67,23.48-5.11,61.37-18.83,89.88,15.84-1.24,16.36-11.13,19.26-51.21l-.43-38.66Z"/>
    <path class="cls-2" d="M211.09,14.88c-10.11,3.9-19.88,7.93-24.34,13.95-3.42-4.98-5.79-10.9-4.01-14.05,4.62,2.92,16.91,1.25,28.34.1Z"/>
    <path class="cls-2" d="M154.32,75.19s22.98-8.43,42.92,5.47c19.94,13.9,27.49,35.69,27.49,35.69,0,0-18.18-25.43-31.66-33.39-13.48-7.96-38.76-7.77-38.76-7.77Z"/>
    <path class="cls-12" d="M236.1,8.34c-30.58,6.74-59.67,26.45-80.38,48.14.47,6.8,5.84,8.52,15.18,6.11,14.9-21.57,38.75-43.82,65.2-54.25Z"/>
    <g>
      <g>
        <circle class="cls-1" cx="137.42" cy="147.77" r="4.18"/>
        <circle class="cls-12" cx="137.42" cy="147.77" r="2.71"/>
      </g>
      <g>
        <circle class="cls-1" cx="135.61" cy="161.82" r="4.18"/>
        <circle class="cls-12" cx="135.61" cy="161.82" r="2.71"/>
      </g>
      <g>
        <circle class="cls-1" cx="123.87" cy="153.39" r="4.18"/>
        <circle class="cls-12" cx="123.87" cy="153.39" r="2.71"/>
      </g>
      <g>
        <circle class="cls-1" cx="130.77" cy="174.79" r="4.18"/>
        <circle class="cls-12" cx="130.77" cy="174.79" r="2.71"/>
      </g>
      <g>
        <circle class="cls-1" cx="113.12" cy="161.23" r="4.18"/>
        <circle class="cls-12" cx="113.12" cy="161.23" r="2.71"/>
      </g>
      <g>
        <circle class="cls-1" cx="172.06" cy="167.55" r="4.18"/>
        <circle class="cls-12" cx="172.06" cy="167.55" r="2.71"/>
      </g>
      <g>
        <circle class="cls-1" cx="174.93" cy="181.42" r="4.18"/>
        <circle class="cls-12" cx="174.93" cy="181.42" r="2.71"/>
      </g>
      <g>
        <circle class="cls-1" cx="161.09" cy="177.28" r="4.18"/>
        <circle class="cls-12" cx="161.09" cy="177.28" r="2.71"/>
      </g>
      <g>
        <circle class="cls-1" cx="174.6" cy="195.26" r="4.18"/>
        <circle class="cls-12" cx="174.6" cy="195.26" r="2.71"/>
      </g>
      <g>
        <circle class="cls-1" cx="153.49" cy="188.2" r="4.18"/>
        <circle class="cls-12" cx="153.49" cy="188.2" r="2.71"/>
      </g>
    </g>
    <path class="cls-2" d="M164.17,135.98c-.97,8.67-14.14,26.27-24.46,33.94,0,0,6.15-12.95,6.82-21.1,1,4.8,16.71-5.26,17.65-12.84Z"/>
    <path class="cls-2" d="M139.03,119.96c-6.89,6.25-14.55,16.52-22.68,29.3l8.88-5.04c1.86-7.51,6.82-15.67,13.79-24.26Z"/>
    <path class="cls-2" d="M167.51,138.61c-8.58,8.01-12.24,21.78-14.59,37.08l12.42-15.25c-5.36-5.07-1.39-13.52,2.17-21.83Z"/>
    <path class="cls-2" d="M196.72,148.37c-2.7,13.89-7.69,27-13.98,39.68l-.8-13.58c5.24-3.82,10.53-14.04,14.78-26.1Z"/>
    <path class="cls-2" d="M211.07,143.84c-2.32,12.35.31,25.14,8.68,37.39,0,0-10.99-13.25-11.02-21.6s2.33-15.79,2.33-15.79Z"/>
    <path class="cls-2" d="M133.86,104.67c-12.61,10.7-25.61,14.16-38.88,12.81,0,0,16.56,2.03,24.74-2.15,8.18-4.18,14.14-10.66,14.14-10.66Z"/>
    <g>
      <path class="cls-5" d="M67.88,78.26c-26.9,19.93-46.53,27.86-58.88,23.79,18.84-8.78,36.77-19.56,53.83-32.23-.53,4.33.9,7.32,5.05,8.44Z"/>
      <path class="cls-10" d="M17.73,78.85c-3.12,4.54-3.35,9.92-1.29,15.96l12.32-5.82c-6.91-1.38-8.83-5.59-7.1-11.86l-3.92,1.73Z"/>
      <line class="cls-6" x1="20.29" y1="74.84" x2="30.53" y2="91.95"/>
      <path class="cls-10" d="M25.91,60.16c-1.83,2.66-1.97,5.8-.77,9.32l7.21-3.41c-4.04-.8-5.16-3.25-4.14-6.92l-2.3,1.01Z"/>
      <line class="cls-7" x1="27.2" y1="58" x2="42.56" y2="83.66"/>
      <path class="cls-10" d="M28.74,68c-2.04,4.53-1.25,10.53,1.78,17.71l10.31-4.26c-6.65-2.84-9.21-7.93-8.78-14.66l-3.31,1.21Z"/>
    </g>
  </g>
</svg>