<?xml version="1.0" encoding="UTF-8"?>
<svg id="Layer_1" xmlns="http://www.w3.org/2000/svg" version="1.1" viewBox="0 0 96 83.1">
  <!-- Generator: Adobe Illustrator 29.1.0, SVG Export Plug-In . SVG Version: 2.1.0 Build 142)  -->
  <path d="M94,46.7v-.3h-.3c-1.6-.9-3.2-1.5-4.9-2-.9-.2-1.7-.4-2.6-.4s-1.9,0-2.8.4c-1.8.6-3.1,1.9-3.7,3.6-.6,1.8,0,3.6,1.6,4.7h0c0,0,.6.5.6.5h0l-.7-.3c-1.6-1.1-2.3-3.1-1.7-5,.6-1.8,2.1-3.1,3.8-3.7s1.9-.4,2.8-.4,1.8,0,2.6.4c1.5.4,3,1,4.5,1.7l.6.3.3-.6v-.2c2.6-4,1.9-9.3-1.8-12.4,0,0,0,0-.2-.2l-.4-.5-.5.3c-1.3.9-2.7,1.5-4.3,1.8h-.6c-1.4,0-2.6-.7-3.4-1.7-.5-.9-.9-1.8-1-2.7,0-.8-.4-1.6-.7-2.3-.8-1.4-2.3-2.2-3.7-2.2s-.4,0-.7,0c-1.8.4-3.1,1.8-3.3,3.6,0,1.1,0,2.1.5,3,.3.9.4,1.8.5,2.6,0,2.3-1.7,4.3-3.9,4.8-.3,0-.7,0-1.1,0-2,0-3.6-1.1-4.5-2.8h0c.8,1.7,2.5,2.7,4.3,2.7s1.4-.2,2.1-.5c1.7-.8,2.6-2.5,2.7-4.3,0-.9-.2-1.8-.5-2.6-.4-1-.5-2.1-.4-3,.2-2,1.7-3.4,3.5-3.7h.7c1.7,0,3.1.9,3.9,2.4.3.7.6,1.5.7,2.3,0,1,.4,1.9,1,2.7.8,1,2.1,1.6,3.3,1.6s.4,0,.6,0c1.7-.3,3.2-1,4.6-2.1l.3-.2v-.3c0-.6.2-1.3.2-1.9,0-3.9-2.5-7.5-6.1-8.8-.7-.2-1.1-.9-1.2-1.6-.2-2.1-1-3.9-2.4-5.4-1.7-2.2-4.3-3.4-7.1-3.4s-1,0-1.4,0h-.3c-.2,0-.4,0-.6,0h-.2c-2.6.2-4.6.8-6,3.5-.9,1.8-.5,3.9.2,5.4.8,1.7,2.4,2.9,4.1,3.5h0q0,0,0,0h0c-1.9-.6-3.4-1.9-4.2-3.6-1-1.8-1-3.7-.2-5.6.9-2,2.7-3.2,4.9-3.5h1.1c0,0-.6-1-.6-1-1.8-2.6-4.6-4.1-7.7-4.1s-1.5,0-2.2.3h-.4c-.5,0-1-.3-1.3-.7-1.8-2.5-4.6-3.9-7.7-3.9s-3.2.5-4.7,1.3l-.4.2v.2c-1.1,1.6-2.1,3.4-1.9,5.3.3,2.7,2.9,4.5,5.4,4.7h.7c2.2,0,4.4-.9,6.6-2.6h0v.2c-1.9,1.6-4.2,2.6-6.7,2.6h-.7c-2.6-.2-5.3-2.2-5.6-4.9,0-1.7.4-3.3,1.4-4.7l.5-.7-.8-.3c-.2,0-.3,0-.4-.2-1.7-1.3-3.6-2-5.7-2s-4.9,1-6.7,2.7l-.4.4.4.5c1.3,1.4,2,3.2,1.8,5.1-.3,2.2-1.6,4-3.5,4.9-1,.4-2.1.7-3.1.9h-.2c-.3,0-.6.2-1,.2-1.8.4-3,1.1-3.6,2.2-1.3,1.9-.3,4.5,1.5,5.9,1.3,1,2.9,1.5,5.1,1.5s.9,0,1.4,0h0c-.3,0-.5,0-.8,0h-1.1c-1.8,0-3.4-.5-4.8-1.5-1.8-1.3-2.8-4.1-1.5-6.1.7-1.1,2-1.8,3.8-2.2.3,0,.6,0,.9-.2h.2c1.1-.2,2.2-.5,3.1-.9,1.9-1,3.1-2.7,3.3-4.8.2-2.1-.6-4-2.2-5.4l-.2-.2h-.6c-.8-.2-1.6-.3-2.5-.3-2.8,0-5.7,1.4-7.5,3.6-.3.5-.9.8-1.5.8s-.2,0-.3,0c-.8-.2-1.5-.3-2.3-.3-1.7,0-3.3.4-4.7,1.3-2.5,1.4-4.1,3.8-4.5,6.6v.5l.4.2c1.9.7,3.1,2.4,3.2,4.2,0,2.6-1.3,4.9-3.6,5.9h0v-.2c2.2-1,3.6-3.2,3.4-5.7-.2-2.3-1.9-4-4.1-4.3h-.2c-3.2,1.2-7.1,3.6-7.5,9.1,0,1.6.3,3.1,1.2,4.5v.2c1.3,2.6,4.2,4.3,6.7,5.2,1.2.5,2.5.7,3.8.7s2.8-.3,4.3-.9h0s0,0,0,.2c-1.4.6-2.8.9-4.3.9s-2.6-.2-3.8-.7c-1.4-.5-4.2-1.9-5.9-4l-.5-.7-.5.7c-2.4,3.5-2.1,8.1.9,11.3,2.1,2.4,4.2,3.4,6.6,3.5h.4l.2-.3c1.3-1.9,3.4-3,5.8-3s.9,0,1.3,0c1.3.3,2.6.8,3.8,1.5,1.6.7,2.9,1.4,4.5,1.4s.7,0,1,0c2.5-.5,4-2.8,3.5-5.3-.2-1.1-.8-2-1.7-2.6v-.2l-.5-.4h0l.7.4c2.1,1.6,2.4,4.6.8,6.6-.7.9-1.7,1.5-2.7,1.7h-1c-1.6,0-3.1-.7-4.6-1.5-1.2-.6-2.4-1.1-3.7-1.4-.4,0-.9,0-1.3,0-2.4,0-4.4,1.2-5.7,3.1v.2c0,0,0,.3,0,.3.9,4.4,4.7,7.7,9.2,7.7h.7c.3,0,.6.2.8.4,1.6,3.4,4.9,5.6,8.6,5.6s1.1,0,1.6,0h.6v-.7c-.2-1.5,0-2.9.6-4.1.6-.9,1.5-1.4,2.6-1.5h.6c.8,0,1.6,0,2.4.3h0q0,0,0,0c-.8-.2-1.7-.3-2.5-.3s-.3,0-.4,0c-1,0-1.9.5-2.4,1.3h0c-.7,1.6-.9,3.2-.5,4.9v.4c.8,1.4,1.9,2.5,3.2,3.2,1.5.9,3.1,1.4,4.9,1.4s2.7-.3,3.9-.9h.9c1.9,0,3.7-.7,5.3-1.9,1.9-1.5,1.9-3.7,1.7-5.9-.2-2-1.6-3.5-3.4-4.2h0v-.2h0c2,.6,3.3,2.4,3.5,4.3.2,2.2.2,4.5-1.7,6.1-1.3,1-2.8,1.6-4.4,1.8h-.9c0,0,.6,1.4.6,1.4,1.2,2.7,2.8,6.5,10.8,8l6.5,7.9c.9,1.2,2.2,1.8,3.6,1.8s1.5-.2,2.2-.6c1.9-1.1,2.7-3.3,2.1-5.3l-1.6-4.8c-.4-1.1,0-2.3.8-3l.5-.5s.2,0,.2-.2l.4-.3-.2-.5c-.5-1-.7-2-.5-3,.3-1.1,1-2.1,2.1-2.7.5-.3,1.4-.7,2-.7s.2,0,.2,0h0q0,0,0,0c0,0,0,0,0,0h-.2c-1.8.2-3.1,1.5-3.7,3.1-.2,1.2,0,2.4.7,3.3v.2h.4c.3,0,.7.2.9.5,1.8,1.9,4.3,2.9,6.9,2.9s4.7-.9,6.5-2.6c1.6-1.5,2.6-3.4,2.8-5.5,0-.7,0-1.4,0-2.2,0-.8.4-1.5,1.1-1.8,3.4-1.5,5.7-4.9,5.7-8.6s-.4-3.2-1.3-4.7h0c0,0-.2.6-.2.6ZM36.4,44.5h0c.4,0,.8,0,1.1,0,2.4,0,4.4-1.7,4.9-3.9.2-.9.2-1.9-.2-2.7h0c.6,1.7.2,3.7-1.1,5.1h0c-1,1.2-2.4,1.8-3.8,1.8s-.8,0-1.1,0h.3ZM40.4,31.2s0,0,0,0,0,0,0,0c1.7-.6,3.2-1.6,4.6-2.6,1.4-1.2,2.1-2.9,2-4.8-.3-1.7-1.5-3.1-2.9-3.8-1.6-.8-3.2-1.2-4.9-1.3h0v-.7h0v.6c1.8,0,3.5.6,5,1.4,1.6.8,2.7,2.3,3,4,.2,1.9-.6,3.7-2.1,4.9l-.6.5c-1.3,1-2.6,1.7-4.1,2.3v-.3ZM59.9,55.3h0c-.2-3.5,2.5-6.7,6-6.9h.5c2.8,0,5.3,1.9,6.2,4.5h0c0,0-.2,0-.2,0-.8-2.6-3.2-4.5-6-4.5s-1.2,0-1.8.3c-2.8.9-4.7,3.6-4.5,6.6h0ZM54.2,41.3c-1.1-.7-2-1.6-2.6-2.6-1.1-1.9-.2-4.4,1.3-5.7,1.4-1.2,3.2-2,5.8-2.2h0c-2.6.4-4.4,1.1-5.7,2.3-1.4,1.3-2.3,3.7-1.2,5.5.6,1.2,1.6,2.2,2.7,2.8h.3c1.3.8,2.6,1.2,4.1,1.2h.2s0,0,0,0h-.2c-1.5,0-2.8-.4-4.1-1l-.7-.3h0ZM57.3,23.3c.7,1.2.8,2.6.2,3.9h0c.9-2.2,0-4.6-2.2-5.5-.5-.2-1.1-.3-1.7-.3s-1.4.2-2.1.5h0c0,0,.2,0,.2,0,.6-.4,1.3-.6,2-.6,1.6,0,2.9.8,3.7,2.2h-.2Z"/>
</svg>