<?xml version="1.0" encoding="UTF-8"?>
<svg id="bulb-layer" xmlns="http://www.w3.org/2000/svg" viewBox="0 0 3615.2 3761.5">
  <path id="bulb" d="M1974.4,3611.4h-552.3v20.7c0,71.5,57.9,129.4,129.4,129.4h551.9c71.5,0,129.4-57.9,129.4-129.4v-248.9c0-9-7.7-16.1-16.6-15.3-4,.3-8.1.6-12.2.6h-751.4c-4.8,0-9.5-.2-14.1-.6-8.9-.7-16.4,6.4-16.4,15.4v167.4h550.6c16.4,0,31.2,12.3,32,28.7.9,17.5-13,32-30.3,32h0ZM917.2,1807.3c2.6,181.2,58.3,355.4,161.5,504.4.3.4.5.8.7,1.1,142.5,226.8,277.1,440.9,252.7,875.3.4,66.1,54.3,119.6,120.5,119.6h749.7c32,0,62.2-12.6,85-35.4,22.6-22.6,35.2-52.5,35.4-84.2-23.3-414.9,98.5-628.9,233.6-844.9,5.7-9.1.6-21-9.9-23.2-25-5.2-49.1-16.2-70.3-32.8-50-39.1-72.6-103.8-61.9-166.4l30.1-175.2c6.1-35.4-5.7-71.5-31.4-96.5l-127.4-124.2c-46.2-45.1-65.6-112.3-46.7-174,19.4-63.4,72.6-108.9,138-118.4l180-26.2c29.3-4.3,55.2-20.3,72.3-43.8-160.7-298.1-469.9-481.7-809.9-478.7-502.1,4.5-909.1,421.3-902,923.4v.1ZM1575.4,1663.5c5.8-6.3,13.9-9.9,22.5-9.9h469.2c8.5,0,16.7,3.6,22.5,9.9s8.6,14.8,7.8,23.3l-119,1274.1c-1.5,15.7-14.7,27.5-30.2,27.5-.9,0-1.9,0-2.9-.1-16.7-1.6-29-16.4-27.4-33.1l115.9-1240.9h-402.5l115.9,1240.9c1.6,16.7-10.7,31.5-27.4,33.1-16.7,1.6-31.5-10.7-33.1-27.4l-119.1-1274.1c-.8-8.5,2-17,7.8-23.3h0ZM2388.4,1492.2c-42.7,6.2-79.3,35.7-91.8,77.1-11.9,39.6-1.4,80.4,28.4,109.4l130.3,127c40,39,58.3,95.2,48.8,150.3l-30.2,176.3c-7.3,42.6,9.5,86.5,44.9,111.1,34,23.6,76,26.2,112.8,6.8l90.8-47.8c5.1-2.7,8.2-7.9,8.2-13.6v-133.4c0-77.4,62.8-140.2,140.2-140.2h1.5c77.4,0,140.2,62.8,140.2,140.2v133.4c0,5.7,3.2,11,8.2,13.6l88.2,46.4c38.2,20.1,85.2,17.7,119.5-8.4,33-25,48.4-64.2,41.4-105.2l-30.7-179.3c-9.4-55.1,8.8-111.3,48.8-150.3l128.1-124.9c30.9-30.1,43.2-75.5,28.9-116.3-13.6-39.1-46.1-65.9-87.2-71.8l-180-26.2c-55.3-8-103.1-42.8-127.9-92.9l-79.2-160.4c-19.1-38.7-58.5-64.4-101.7-63.5-41.4.9-76.9,23.5-95.3,60.8l-80.5,163.1c-.7,1.4-1.5,2.8-2.2,4.2-.2.4-.4.8-.6,1.2-25.4,47.2-71.7,79.8-125,87.6l-177,25.7h.1ZM3527.3,2700.8c-41.6,3.9-72.5,40.4-72.5,82.2v53.9c0,16.4-12.3,31.2-28.7,32-17.5.9-32-13-32-30.3v-195.6c0-41.7-30.9-78.3-72.5-82.2-47.7-4.5-87.9,33.1-87.9,79.8v196.3c0,16.4-12.3,31.2-28.7,32-17.5.9-32-13-32-30.3v-281.9c0-41.7-30.9-78.3-72.5-82.2-47.7-4.5-87.9,33.1-87.9,79.8v282.5c0,16.4-12.3,31.2-28.7,32-17.5.9-32-13-32-30.3v-783.2c0-43.9-35.6-79.4-79.4-79.4h-1.5c-43.9,0-79.4,35.6-79.4,79.4v1017.3c0,16.4-12.3,31.2-28.7,32-17.5.9-32-13-32-30.3v-184.7c0-14.4-18-21-27.2-9.9-41.3,49.8-115.4,151.7-118.6,247.3v8.8c-.7,85-1.9,261.8,192.2,421.4,7.1,5.8,11.3,14.5,11.3,23.7v78.4c0,56.4,45.7,102,102,102h479.7c56.4,0,102-45.7,102-102v-78.6c0-8.8,3.9-17,10.5-22.8,132.6-117.7,132.6-263.5,132.6-350.6v-426.9c0-46.8-40.2-84.3-87.9-79.8l-.2.2ZM1827.5,535.8c25.5,0,46.2-20.7,46.2-46.2V46.2C1873.7,20.7,1853,0,1827.5,0s-46.2,20.7-46.2,46.2v443.4c0,25.5,20.7,46.2,46.2,46.2ZM535.8,1827.5c0-25.5-20.7-46.2-46.2-46.2H46.2c-25.5,0-46.2,20.7-46.2,46.2s20.7,46.2,46.2,46.2h443.4c25.5,0,46.2-20.7,46.2-46.2ZM2773.5,927.7c11.8,0,23.7-4.5,32.7-13.5l313.5-313.5c18.1-18.1,18.1-47.3,0-65.4-18.1-18.1-47.3-18.1-65.4,0l-313.5,313.5c-18.1,18.1-18.1,47.3,0,65.4,9,9,20.9,13.5,32.7,13.5ZM600.6,3119.7l313.5-313.5c18.1-18.1,18.1-47.3,0-65.4-18.1-18.1-47.3-18.1-65.4,0l-313.5,313.5c-18.1,18.1-18.1,47.3,0,65.4,9,9,20.9,13.5,32.7,13.5s23.7-4.5,32.7-13.5ZM848.8,914.1c9,9,20.9,13.5,32.7,13.5s23.7-4.5,32.7-13.5c18.1-18.1,18.1-47.3,0-65.4l-313.5-313.5c-18.1-18.1-47.3-18.1-65.4,0-18.1,18.1-18.1,47.3,0,65.4l313.5,313.5Z"/>
</svg>