<?xml version="1.0" encoding="UTF-8"?>
<svg id="Layer_2" data-name="Layer 2" xmlns="http://www.w3.org/2000/svg" viewBox="0 0 64.01 89.71">
  <g id="Layer_1-2" data-name="Layer 1">
    <g>
      <path d="M32.22,36.25h0c.13,0,.25.02.38.02.31,0,.61.01.92.03v-5.06h0c-.47-.01-.94-.05-1.4-.12-.46.07-.93.11-1.4.12h0v5.06c.35-.02.71-.03,1.07-.04.09,0,.17-.01.26-.01h.18Z"/>
      <path d="M46.5,41.64c-3.86-3.38-8.79-5.26-13.9-5.36-.13,0-.26-.01-.39-.01h-.17c-.08,0-.16,0-.25,0-5.35.08-10.49,2.11-14.43,5.74-3.49,3.2-5.83,7.46-6.66,12.12h42.88c-.86-4.85-3.36-9.25-7.07-12.49ZM44.9,52.64c-.76.13-1.49-.38-1.62-1.14-.15-.87-1.8-2.65-2.38-2.89h0s0,0,0,0c-.7-.31-1.02-1.13-.72-1.84.31-.71,1.13-1.03,1.84-.73,1.33.59,3.69,3.11,4.02,4.97.13.76-.38,1.48-1.14,1.62ZM50.17,50.08c.13.76-.38,1.48-1.14,1.62-.76.13-1.48-.38-1.62-1.13-.35-2-3.66-5.52-4.98-6.09h0c-.7-.31-1.03-1.13-.73-1.84.31-.7,1.13-1.03,1.84-.72,1.02.44,2.84,1.99,4.27,3.75,1.14,1.4,2.1,3,2.35,4.41h0Z"/>
      <path d="M32.21,36.26c.13,0,.26.01.39.01-.13,0-.25-.02-.38-.02h0s-.18,0-.18,0c-.09,0-.17.01-.26.01.08,0,.16,0,.25,0h.17Z"/>
      <path d="M21.23,15.16h0c-1.45-.55-3-.81-4.55-.75-.37,7.16,6.88,14.43,14.05,14.05,0-.09,0-.18.01-.27h0v-.55c-.15-5.4-4.45-10.62-9.51-12.48Z"/>
      <path d="M32.14,0c-6.68,4.76-6.68,15.35,0,20.11,6.69-4.76,6.69-15.36,0-20.11Z"/>
      <path d="M33.54,27.66v.5c0,.1,0,.2.01.29,7.16.37,14.41-6.88,14.05-14.05h0c-6.9-.35-13.88,6.37-14.05,13.27Z"/>
      <polygon points="46.92 73.79 46.92 73.78 46.92 73.78 46.92 73.79"/>
      <path d="M49.37,64.08c.45,2.23.78,3.89-4.04,5.11-2.31.75-2.29,1.02-2.25,1.26.09.71.17,1.4-.63,2.25-1.36,1.45-2.58,2.57-.18,4.37h0c1.69-.89,3.25-1.99,4.64-3.28h0s0,0,0,0h0c3.49-3.21,5.83-7.46,6.66-12.12h-4.05c-.46.91-.3,1.72-.16,2.41Z"/>
      <path d="M46.52,61.66h-10.68c-.02.73-.14,1.45-.34,2.15-.71,2.46-2.53,4.3-5.27,3.5-2.31-.68-6.36-.45-8.45.97-.64.43-.88.75-.64,1.25.12.27.41-.1,1.09.12,1.78.57,4.14,1.32,5.24,2.89,1.28,1.82,1.6,3.38,1.37,4.8h0c-.1.64-.3,1.26-.6,1.84,1.47.27,2.96.38,4.46.34,2.29-.05,4.56-.47,6.73-1.23-2.05-2.08-1.64-3.98-.59-5.62.87-1.37,1.52-.85,1.4-2.4-.08-1.2.29-2.46,4.3-3.77,1.14-.37,2.38-.43,2.09-1.88-.18-.87-.38-1.84-.11-2.96v-.02Z"/>
      <path d="M15.72,72.12c2.59,2.96,5.95,5.17,9.7,6.37.88-1.4,1.04-2.51-.24-4.34-.55-.8-2.4-1.4-3.8-1.83-1.33-.42-2.39-.75-2.77-1.57-.88-1.85-.12-3.6,1.6-4.77,2.74-1.86,7.64-2.24,10.79-1.33.62.18.97.01,1.31-.48.42-.61.7-1.69.76-2.49h.01s-22.39,0-22.39,0c.7,3.88,2.43,7.49,5.03,10.46Z"/>
      <polygon points="42.44 44.46 42.44 44.47 42.44 44.47 42.44 44.46"/>
      <path d="M61.08,44.34l-1.37-2.62c-.18-.32-.48-.56-.84-.66s-.74-.05-1.05.14c-.67.38-.9,1.23-.52,1.9h0s1.24,2.4,1.24,2.4c.32.7,1.15,1.01,1.86.69.7-.32,1-1.15.68-1.86h0Z"/>
      <polygon points="59.98 49.26 59.97 49.26 59.97 49.26 59.98 49.26"/>
      <path d="M62.65,48.45c-.22-.74-1-1.16-1.74-.94-.36.11-.66.35-.83.68-.18.33-.21.71-.11,1.06h0s0,0,0,0c0,0,0,0,0,0h0c.4,1.32.71,2.66.91,4.02.05.37.25.7.55.92.3.22.68.31,1.05.26.76-.12,1.29-.83,1.17-1.59-.23-1.49-.57-2.96-1-4.41Z"/>
      <polygon points="61.22 57 61.22 56.99 61.22 57 61.22 57"/>
      <path d="M62.58,55.58c-.77.02-1.37.65-1.37,1.42h0s0,0,0,0c0,0,0,0,0,0h0c.03,1.33-.03,2.67-.19,4-.08.77.47,1.46,1.24,1.54.77.08,1.46-.47,1.54-1.23.16-1.45.23-2.9.2-4.36-.02-.77-.66-1.38-1.42-1.37Z"/>
      <polygon points="60.38 64.65 60.38 64.65 60.38 64.66 60.38 64.65"/>
      <path d="M62.05,68.74c.41-1.12.76-2.26,1.04-3.42.18-.75-.28-1.5-1.03-1.68-.74-.18-1.49.27-1.68,1.02h0,0s0,0,0,0h0c-.26,1.05-.57,2.09-.95,3.11-.13.35-.11.73.04,1.07.16.34.44.6.79.73.72.26,1.52-.11,1.79-.83Z"/>
      <polygon points="57.83 71.38 57.83 71.38 57.83 71.37 57.83 71.38"/>
      <path d="M54.36,78.66c.29.24.65.36,1.02.33.37-.03.71-.2.96-.48,1.53-1.79,2.86-3.75,3.95-5.84.36-.68.1-1.52-.58-1.88-.68-.36-1.52-.1-1.89.58h0c-1,1.9-2.21,3.69-3.61,5.32-.5.59-.43,1.46.15,1.96Z"/>
      <polygon points="51.52 79.46 51.53 79.46 51.52 79.45 51.52 79.46"/>
      <path d="M51.53,79.46h0c-2.21,1.97-4.71,3.6-7.4,4.83-.7.32-1,1.15-.68,1.85.32.7,1.15,1,1.85.69,2.95-1.34,5.68-3.13,8.09-5.29.57-.52.62-1.39.11-1.97-.51-.57-1.39-.62-1.96-.11Z"/>
      <polygon points="40.66 85.62 40.66 85.62 40.66 85.61 40.66 85.62"/>
      <path d="M40.66,85.62h0c-3.63,1.13-7.44,1.53-11.22,1.19-.77-.07-1.45.5-1.52,1.27-.06.77.5,1.44,1.27,1.51,4.15.38,8.33-.06,12.31-1.3.73-.23,1.14-1.01.92-1.75-.23-.74-1.02-1.15-1.75-.92Z"/>
      <path d="M7.73,74.73c-.37-.05-.74.04-1.04.27-.61.46-.74,1.34-.28,1.95,4.59,6.11,11.22,10.38,18.69,12.01.75.16,1.49-.31,1.66-1.06.08-.36.02-.74-.18-1.05-.2-.31-.51-.53-.88-.61v.02c-6.81-1.5-12.87-5.4-17.06-10.98-.22-.29-.55-.49-.92-.54Z"/>
      <polygon points="25.7 86.23 25.7 86.24 25.7 86.22 25.7 86.23"/>
      <path d="M.08,55.38c-.46,6.32.97,12.63,4.1,18.14.38.67,1.23.91,1.91.53.67-.38.91-1.23.53-1.91h0c-2.87-5.03-4.17-10.79-3.74-16.57.05-.77-.53-1.43-1.3-1.49-.77-.05-1.43.52-1.49,1.29Z"/>
      <polygon points="6.61 72.13 6.61 72.14 6.61 72.14 6.61 72.13"/>
      <path d="M.67,51.32c-.16.75.33,1.49,1.09,1.65.76.15,1.5-.33,1.65-1.09h0c1.66-8.19,6.75-15.28,14-19.46.66-.39.89-1.24.51-1.91-.39-.67-1.25-.89-1.91-.51-7.93,4.58-13.52,12.34-15.34,21.31Z"/>
    </g>
  </g>
</svg>