<?xml version="1.0" encoding="UTF-8"?>
<svg id="Layer_2" data-name="Layer 2" xmlns="http://www.w3.org/2000/svg" viewBox="0 0 87.19 86.3">
  <g id="Layer_1-2" data-name="Layer 1">
    <g>
      <path d="M40.87,8.39c-.01-.76-.64-1.37-1.4-1.36-.76,0-1.39.6-1.4,1.36v13.62h2.8v-13.62Z"/>
      <path d="M29.14,7.42c-.26-.26-.62-.4-.98-.39-.77-.01-1.39.6-1.4,1.36v13.62h2.8v-13.62c0-.37-.16-.71-.42-.97Z"/>
      <path d="M35.22,8.39c-.02-.76-.64-1.37-1.4-1.36-.76,0-1.39.6-1.4,1.36h0v13.62h2.8v-13.62Z"/>
      <path d="M62.56,4.62c-.38-.75-.87-1.45-1.45-2.06-.55-.57-1.09-.95-1.48-.95-2,0-2.98.45-4.79.05,2.88,4.72,4.56,2.66,7.71,2.96Z"/>
      <path d="M50.46,15.22c-2.6,5.43-1.43,12.04,1.97,16.83,1.93,2.73,5.31,6.25,8.58,6.89,1.29.25,2.54.2,3.4-.69h0c.26-.27.62-.43,1-.43s.74.15,1.01.43c.87.89,2.1.94,3.4.69,3.27-.64,6.65-4.16,8.59-6.89,3.4-4.8,4.57-11.4,1.97-16.83-2.38-4.95-7.13-7.62-12.54-5.6-.22.08-.44.17-.68.27h0s-.07.04-.07.04c-.33.14-.67.31-1.02.5-.41.22-.91.22-1.32,0-3.12-1.66-6.43-2.14-9.6-.4-1.99,1.11-3.62,2.95-4.7,5.19ZM60.15,34.77c-.84.58-1.93.48-2.89-.09h0c-.77-.5-1.41-1.18-1.86-1.98-.47-.79-.74-1.68-.79-2.6h0c-.02-1.08.4-2,1.23-2.47.83-.49,1.84-.38,2.76.16,2.28,1.37,3.78,5.4,1.53,6.97ZM57.83,12.85c3.57,1.17,2.99,8.98.12,12.13-.96,1.05-2.14,1.54-3.32,1.15-3.58-1.17-2.99-8.98-.12-12.13.96-1.06,2.14-1.54,3.32-1.15Z"/>
      <path d="M72.21.43c-.08-.06-.16-.12-.26-.16-.47-.24-1.13-.32-1.98-.22-1.73,1.5-3.02,2.94-3.86,4.33-.59.93-.96,1.97-1.1,3.06.14.06.27.12.4.19,1.14-3.44,3.41-5.89,6.8-7.19Z"/>
      <polygon points="65.41 7.62 65.41 7.62 65.41 7.63 65.41 7.62"/>
      <path d="M55.48,23.47c.05,0,.2-.14.4-.37,1.32-1.46,1.89-4.68,1.51-6.53h0c-.12-.6-.27-1-.41-1.06-.05,0-.2.14-.4.36-1.32,1.46-1.89,4.68-1.52,6.53.12.6.27.98.41,1.06Z"/>
      <path d="M57.25,30.07s.04-.04,0-.02c-.04.02-.02.02,0,.02Z"/>
      <path d="M58.43,32.09c-.15-.65-.49-1.24-.98-1.7.16.65.5,1.24.98,1.7Z"/>
      <path d="M36.29,26c2.34-.6,4.08-1.97,4.56-4h-14.03c.42,2.08,2.2,3.38,4.59,4h0c.64.17,1.07.76,1.04,1.42l-.15,12.88h3.11s-.16-12.94-.16-12.94c0-.64.43-1.2,1.04-1.37Z"/>
      <path d="M16.46,26.06c3.44-1.59,4.85-5.2,4.85-9.2-.02-2.5-.83-4.94-2.33-6.94-2.82-3.69-6.71-3.69-9.52,0-1.5,2-2.31,4.44-2.32,6.94,0,4.02,1.4,7.62,4.84,9.2h0c.5.23.81.73.81,1.27l-.14,12.97h3.16s-.14-12.87-.14-12.87h0c-.05-.58.27-1.13.8-1.38Z"/>
      <path d="M2.13,66.84h82.94c.29,0,.58-.06.84-.18.02,0,.04-.01.05-.02.63-.3,1.07-.88,1.19-1.56.12-.69-.1-1.39-.59-1.88-.39-.4-.94-.62-1.5-.62H2.12c-.27,0-.55.05-.8.16h0s-.09.04-.13.05c-.62.3-1.05.88-1.17,1.56-.11.68.11,1.38.59,1.86.4.4.94.62,1.51.63Z"/>
      <path d="M79.82,43.69c-.11-.37-.46-.61-.84-.58H9.04c-.36-.03-.7.19-.82.53l-5.46,16.13h81.79s-4.72-16.08-4.72-16.08ZM69.19,48.57c-.26.26-.62.41-.99.41h-5.71c-.77,0-1.4-.63-1.4-1.4s.62-1.4,1.4-1.4h5.72,0c.77,0,1.4.62,1.4,1.4,0,.37-.15.73-.41.99ZM78.29,53.96c-.36.11-.74.08-1.07-.09-.33-.17-.58-.46-.7-.82l-1.34-4.07h-2.99c-.77,0-1.4-.63-1.4-1.4s.63-1.4,1.4-1.4h4c.61,0,1.14.39,1.33.97l1.66,5.04h0c.24.73-.16,1.52-.89,1.77Z"/>
      <path d="M79.83,85.72l4.72-16.08h-32.47v2.16c0,1.72-1.4,3.12-3.12,3.12h-10.71c-1.72,0-3.12-1.4-3.12-3.12v-2.16H2.73c1.78,5.38,3.68,10.77,5.49,16.13.12.34.46.56.82.53h69.96c.38.03.73-.21.84-.58ZM16.7,83.1c-.26.26-.62.41-.99.41h-3.99c-.61,0-1.14-.39-1.33-.96l-1.65-5.05h0c-.24-.73.16-1.52.89-1.76s1.52.16,1.76.89l1.34,4.08h2.98c.77,0,1.4.63,1.4,1.4,0,.37-.14.73-.41.99ZM26.42,83.1c-.26.27-.62.41-.99.41h-5.72c-.77,0-1.4-.62-1.4-1.4s.62-1.4,1.4-1.4h5.72c.77,0,1.4.62,1.4,1.4,0,.37-.15.73-.41.99Z"/>
      <path d="M48.96,72.13c.18,0,.32-.15.32-.32v-2.16h-11.35v2.16c0,.18.14.32.32.32h10.71Z"/>
    </g>
  </g>
</svg>