<?xml version="1.0" encoding="UTF-8"?>
<svg id="Layer_2" data-name="Layer 2" xmlns="http://www.w3.org/2000/svg" viewBox="0 0 92.79 92.79">
  <g id="Layer_1-2" data-name="Layer 1">
    <g>
      <path d="M46.39,14.32c-8.51,0-16.67,3.38-22.68,9.39-6.02,6.02-9.39,14.18-9.39,22.68s3.38,16.67,9.39,22.68c6.02,6.02,14.18,9.4,22.68,9.4s16.67-3.38,22.68-9.39c6.02-6.02,9.4-14.18,9.4-22.69s-3.38-16.67-9.4-22.68h0c-6.02-6.02-14.18-9.39-22.68-9.39ZM63.05,56.8c-1.47,1.38-3.38,2.2-5.4,2.3-1.56.07-2.85-.23-3.94-1-1.21,1.7-2.02,3.54-2.15,5.63,0,.11-.03.21-.06.32v.04s-.04.06-.04.06h0c-.06.16-.16.32-.28.45l-.07.07h0c-.13.12-.29.21-.45.28l-.05.02h-.04c-.12.05-.25.07-.38.07h-.04c-.13,0-.26-.02-.39-.05l-.08-.04c-.17-.06-.32-.16-.45-.28l-.02-.02h-.01s-.02-.02-.02-.02l-.02-.02c-.12-.13-.22-.29-.28-.45l-.02-.06v-.03c-.04-.1-.05-.21-.06-.32-.22-3.49-1.64-6.52-3.77-9.32-1.63,1.4-3.57,1.9-5.97,1.79-2.84-.14-5.54-1.3-7.6-3.25-4.91-4.56-5.4-12.32-5.66-18.4-.02-.56.29-1.09.8-1.32.51-.24,1.11-.15,1.53.23h-.04c3.99,3.65,12.16,2.61,16.66,5.9,4.07,2.92,4.68,8.66,2.06,12.88h0c1.47,1.8,2.66,3.82,3.53,5.97.43-.79.93-1.54,1.47-2.25-1.68-3-1.18-6.95,1.67-8.98,1.54-1.12,3.68-1.54,5.67-1.93,2.06-.4,4.18-.8,5.48-2h0c.42-.38,1.02-.46,1.52-.22.51.24.82.75.8,1.32-.19,4.21-.54,9.5-3.95,12.67Z"/>
      <path d="M43.16,41.63c-1.77-1.25-4.4-1.76-7.08-2.27h0c-2.54-.5-5.12-1-7.36-2.14.38,5.76,1.48,12.95,7.38,15.49,1.77.77,4.2,1.03,5.89.34.89-.36,1.58-1,2.21-1.87,2.15-3,1.97-7.4-1.04-9.55Z"/>
      <path d="M55.15,49.25c-2.01,1.44-1.72,4.27-.54,5.85h0c.05.05.09.11.13.16.3.37.68.66,1.11.84,1.02.41,2.52.24,3.6-.22,3.52-1.52,4.32-5.73,4.62-9.23h0c-2.93,1.2-6.96,1.2-8.91,2.59Z"/>
      <path d="M86.16,28.51l.79,1.88c.12.36.39.66.74.82.35.16.75.18,1.11.04.36-.14.64-.43.79-.78.14-.36.13-.76-.03-1.11l-.84-2c-.33-.69-1.14-.98-1.84-.67-.69.31-1.01,1.12-.71,1.82h0Z"/>
      <path d="M55.52,89.03c-8.4,1.79-17.13,1.07-25.13-2.06.3-1.08.21-2.23-.25-3.26-.61-1.45-1.89-2.79-3.71-3.95-3.36-2.14-8.91-2.68-12.91-3.09-.54-.05-1.07.21-1.35.69s-.25,1.07.07,1.52c.29.44.61.96.96,1.51,1.91,3.03,4.38,6.97,7.25,8.8,1.83,1.16,3.58,1.76,5.14,1.7,1.28-.03,2.5-.55,3.4-1.46,3.39,1.36,6.93,2.32,10.55,2.86h0c5.51.82,11.13.65,16.58-.51.73-.18,1.19-.91,1.04-1.65-.16-.74-.87-1.22-1.61-1.09Z"/>
      <path d="M88.52,33.76c-.18.36-.2.77-.05,1.14h.01c.65,2.39,1.1,4.82,1.34,7.29.13.71.79,1.21,1.51,1.14.72-.07,1.27-.68,1.27-1.41-.25-2.62-.73-5.21-1.44-7.75-.06-.39-.29-.74-.62-.96-.33-.21-.74-.28-1.12-.17s-.71.37-.88.72Z"/>
      <path d="M92.42,44.99c-.27-.29-.64-.45-1.03-.45-.39,0-.77.17-1.03.46-.27.29-.39.68-.36,1.07h0c.03,4.31-.58,8.61-1.8,12.75-.12.36-.09.75.09,1.09.18.34.48.59.84.7s.75.06,1.08-.12c.33-.18.57-.5.67-.86,1.3-4.4,1.95-8.97,1.92-13.55.03-.39-.1-.78-.37-1.07Z"/>
      <path d="M88.66,61.87c-.37-.14-.78-.13-1.13.04-.36.18-.62.49-.73.87h0c-4.68,11.48-14.02,20.44-25.68,24.64-.65.31-.96,1.06-.72,1.74.24.68.96,1.06,1.66.88,12.32-4.43,22.4-14.01,27.32-26.23.18-.35.2-.76.07-1.13-.14-.37-.43-.66-.79-.81Z"/>
      <path d="M4.33,58.08h0c-.86-3.08-1.38-6.25-1.54-9.45-.11-.71-.73-1.23-1.45-1.2-.72.03-1.3.61-1.33,1.33.17,3.4.71,6.78,1.63,10.06.24.7.98,1.09,1.7.89.71-.2,1.15-.91,1-1.63Z"/>
      <path d="M1.33,45.43c.73.04,1.37-.49,1.46-1.22h0c.2-3.81.89-7.58,2.05-11.22.15-.36.14-.77-.03-1.12-.16-.36-.47-.62-.84-.74-.37-.12-.77-.08-1.11.11-.34.19-.59.51-.68.89-1.24,3.86-1.98,7.88-2.19,11.93.02.73.6,1.32,1.33,1.36Z"/>
      <path d="M4.86,28.87c.35.16.75.17,1.11.03.36-.14.64-.43.78-.79h0s0,0,0,0c3.66-7.9,9.59-14.53,17.04-19.02.64-.41.84-1.25.45-1.9-.39-.65-1.22-.87-1.88-.5-7.93,4.79-14.25,11.84-18.15,20.25-.18.34-.21.74-.09,1.1.12.36.39.66.74.82Z"/>
      <path d="M28.55,6.59h0s.01-.01.01-.01c10.87-4.85,23.25-5.06,34.28-.57-.31,1.09-.23,2.25.23,3.29h0c.61,1.45,1.89,2.79,3.71,3.96,3.37,2.14,8.91,2.68,12.91,3.09.54.05,1.07-.21,1.35-.69.28-.47.25-1.06-.06-1.51h0c-.28-.43-.61-.95-.96-1.5-1.9-3.04-4.38-6.98-7.25-8.8-1.83-1.17-3.57-1.77-5.14-1.71-1.27.03-2.48.55-3.38,1.45-11.82-4.93-25.15-4.77-36.85.45-.66.34-.93,1.14-.63,1.81.3.68,1.08,1,1.77.74Z"/>
      <path d="M6.75,64.69l-.91-2.1c-.13-.35-.4-.64-.74-.79-.34-.15-.73-.16-1.09-.02-.35.14-.62.41-.77.76-.14.35-.14.74,0,1.08h0s.96,2.24.96,2.24c.34.67,1.15.95,1.84.64s1-1.12.7-1.81h0Z"/>
    </g>
  </g>
</svg>