<?xml version="1.0" encoding="UTF-8"?>
<svg id="Layer_2" data-name="Layer 2" xmlns="http://www.w3.org/2000/svg" viewBox="0 0 87.19 81.76">
  <g id="Layer_1-2" data-name="Layer 1">
    <g>
      <path d="M81.26,47.17c-3.79-3.8-8.94-5.95-14.31-5.95-11.19,0-20.27,9.12-20.27,20.26h0c0,4.16,1.27,8.23,3.67,11.63h0s.05.07.07.11c3.8,5.36,9.96,8.54,16.53,8.53,5.37,0,10.52-2.14,14.32-5.95,3.8-3.8,5.93-8.96,5.93-14.33,0-5.37-2.13-10.52-5.94-14.31ZM75.66,74.12c-.05.43-.31.81-.68,1.03-3.03,1.79-6.56,2.51-10.05,2.07-3.48-.44-6.72-2.03-9.21-4.52-1.98-1.97-3.4-4.43-4.11-7.14-.72-2.7-.7-5.54.04-8.23.36-1.33.89-2.61,1.59-3.8.2-.4.58-.68,1.03-.75.44-.07.89.08,1.21.39h0s19.78,19.78,19.78,19.78h0c.31.3.46.74.4,1.17ZM80.63,69.49c-.2.4-.59.67-1.03.74-.45.07-.89-.08-1.21-.4h0s-19.78-19.78-19.78-19.78c-.3-.3-.45-.73-.39-1.16s.3-.8.67-1.03c3.03-1.79,6.56-2.52,10.05-2.07,3.48.44,6.72,2.03,9.21,4.51,1.98,1.98,3.4,4.44,4.12,7.14.71,2.7.7,5.55-.04,8.25-.36,1.33-.89,2.61-1.59,3.8Z"/>
      <path d="M55.34,41.57c.43-.24.86-.48,1.3-.7l-9.92-12.18c-.25-.26-.38-.61-.38-.97V8.79h-18.39v4.52h7.04c.77,0,1.4.62,1.4,1.4,0,.37-.15.73-.41.99s-.62.41-.99.41h-7.05v4.16h7.05c.77,0,1.4.62,1.4,1.4,0,.37-.15.73-.41.99-.26.26-.62.41-.99.41h-7.05v4.65h0c0,.32-.11.64-.32.88l-4.73,5.81c3.44.48,7.16,1.91,11.1,3.44,6.77,2.62,14.23,5.51,21.36,3.73Z"/>
      <polygon points="20.75 37.03 20.75 37.03 20.75 37.03 20.75 37.03"/>
      <path d="M50.93,44.91c-6.22.06-12.3-2.29-17.95-4.47-4.51-1.75-8.71-3.37-12.23-3.42L1.72,60.4c-3.75,4.61-.95,12.17,4.6,12.17h40.39c-1.86-3.39-2.84-7.2-2.84-11.07,0-6.26,2.54-12.25,7.05-16.59ZM25.9,45.75c0,1.8-2.8,1.95-2.8-.1,0-1.8,2.8-1.95,2.8.1ZM7.74,63.79c0-1.8,2.8-1.95,2.8.1,0,1.8-2.8,1.95-2.8-.1ZM13.75,51.19c0-1.8,2.8-1.95,2.8.1,0,1.8-2.8,1.95-2.8-.1ZM27.05,68.71c-1.28,1.28-3.02,2-4.82,2s-3.54-.72-4.82-2c-1.28-1.28-2-3.01-2-4.82,0-3.76,3.05-6.81,6.82-6.81h0c1.81,0,3.54.71,4.82,1.99,1.28,1.28,2,3.01,2,4.82s-.72,3.55-2,4.82ZM32.95,58.03c0-1.8,2.8-1.95,2.8.1,0,1.8-2.8,1.95-2.8-.1ZM33.52,49.01c0-2.34,1.9-4.24,4.24-4.25,3.77,0,5.67,4.58,3,7.25-2.67,2.66-7.24.77-7.24-3ZM39.31,64.33c0-1.8,2.8-1.95,2.8.1,0,1.8-2.8,1.95-2.8-.1Z"/>
      <path d="M23.79,6h26.71c.18,0,.32-.15.33-.33V.32c0-.18-.15-.32-.33-.32h-26.71c-.18,0-.32.14-.32.32v5.36c0,.18.14.32.32.33Z"/>
      <path d="M18.2,63.89c0,3.56,4.34,5.37,6.86,2.85h0c.75-.76,1.18-1.78,1.18-2.84s-.43-2.09-1.18-2.84c-2.52-2.52-6.86-.72-6.86,2.84Z"/>
      <path d="M38.78,47.99c-.41-.41-1.03-.53-1.57-.31-.54.22-.89.75-.89,1.33s.35,1.1.89,1.33c.54.22,1.16.1,1.57-.31.27-.27.43-.64.43-1.02s-.15-.75-.43-1.02h0Z"/>
      <path d="M54.87,56.53c-2,4.87-.88,10.47,2.84,14.2,3.73,3.72,9.33,4.84,14.2,2.84h0s-17.05-17.04-17.05-17.04h0Z"/>
      <path d="M61.97,49.45l17.03,17.04c2-4.88.88-10.47-2.84-14.2-3.73-3.72-9.32-4.84-14.19-2.84Z"/>
      <polygon points="61.96 49.46 61.97 49.45 61.96 49.44 61.96 49.46"/>
    </g>
  </g>
</svg>